<svg width="24" height="24" viewBox="0 0 24 24" fill="none" xmlns="http://www.w3.org/2000/svg">
<path d="M6.42 17.7298C4.19 16.2698 2.75 14.0698 2.75 12.1398C2.75 8.8598 6.89 4.8398 12 4.8398C14.09 4.8398 16.03 5.5098 17.59 6.5498" stroke="currentColor" stroke-width="1.5" stroke-linecap="round" stroke-linejoin="round"/>
<path d="M19.8496 8.6102C20.7406 9.7402 21.2596 10.9902 21.2596 12.1402C21.2596 15.4202 17.1096 19.4402 11.9996 19.4402C11.0896 19.4402 10.2006 19.3102 9.36963 19.0802" stroke="currentColor" stroke-width="1.5" stroke-linecap="round" stroke-linejoin="round"/>
<path d="M9.76584 14.367C9.17084 13.778 8.83784 12.975 8.84084 12.138C8.83684 10.393 10.2488 8.975 11.9948 8.972C12.8348 8.97 13.6408 9.303 14.2348 9.897" stroke="currentColor" stroke-width="1.5" stroke-linecap="round" stroke-linejoin="round"/>
<path d="M15.1093 12.6991C14.8753 13.9911 13.8643 15.0041 12.5723 15.2411" stroke="currentColor" stroke-width="1.5" stroke-linecap="round" stroke-linejoin="round"/>
<path d="M19.8917 4.2499L4.11768 20.0239" stroke="currentColor" stroke-width="1.5" stroke-linecap="round" stroke-linejoin="round"/>
</svg>
